{
	"asset":{
		"generator":"Khronos glTF Blender I/O v4.4.56",
		"version":"2.0"
	},
	"scene":0,
	"scenes":[
		{
			"name":"Scene",
			"nodes":[
				0
			]
		}
	],
	"nodes":[
		{
			"mesh":0,
			"name":"\u4f53",
			"scale":[
				0.7817736268043518,
				0.7817736268043518,
				0.7817736268043518
			],
			"translation":[
				0,
				-1.1246976852416992,
				0
			]
		}
	],
	"materials":[
		{
			"doubleSided":true,
			"name":"Material",
			"pbrMetallicRoughness":{
				"baseColorFactor":[
					0.01041837316006422,
					0.7359637022018433,
					0.800054669380188,
					1
				],
				"metallicFactor":0,
				"roughnessFactor":0.5
			}
		},
		{
			"doubleSided":true,
			"name":"\u30de\u30c6\u30ea\u30a2\u30eb",
			"pbrMetallicRoughness":{
				"baseColorFactor":[
					0.6770961284637451,
					0.2807336449623108,
					0.12492160499095917,
					1
				],
				"metallicFactor":0,
				"roughnessFactor":0.5
			}
		},
		{
			"doubleSided":true,
			"name":"\u30de\u30c6\u30ea\u30a2\u30eb.001",
			"pbrMetallicRoughness":{
				"baseColorFactor":[
					0,
					0,
					0,
					1
				],
				"metallicFactor":0,
				"roughnessFactor":0.5
			}
		}
	],
	"meshes":[
		{
			"name":"Cube.001",
			"primitives":[
				{
					"attributes":{
						"POSITION":0,
						"NORMAL":1,
						"TEXCOORD_0":2,
						"TEXCOORD_1":3
					},
					"indices":4,
					"material":0
				},
				{
					"attributes":{
						"POSITION":5,
						"NORMAL":6,
						"TEXCOORD_0":7,
						"TEXCOORD_1":8
					},
					"indices":9,
					"material":1
				},
				{
					"attributes":{
						"POSITION":10,
						"NORMAL":11,
						"TEXCOORD_0":12,
						"TEXCOORD_1":13
					},
					"indices":14,
					"material":2
				}
			]
		}
	],
	"accessors":[
		{
			"bufferView":0,
			"componentType":5126,
			"count":5500,
			"max":[
				1.2576420307159424,
				2.4386022090911865,
				0.8188190460205078
			],
			"min":[
				-1.2576420307159424,
				-1.033206582069397,
				-0.8188189268112183
			],
			"type":"VEC3"
		},
		{
			"bufferView":1,
			"componentType":5126,
			"count":5500,
			"type":"VEC3"
		},
		{
			"bufferView":2,
			"componentType":5126,
			"count":5500,
			"type":"VEC2"
		},
		{
			"bufferView":3,
			"componentType":5126,
			"count":5500,
			"type":"VEC2"
		},
		{
			"bufferView":4,
			"componentType":5123,
			"count":32256,
			"type":"SCALAR"
		},
		{
			"bufferView":5,
			"componentType":5126,
			"count":882,
			"max":[
				0.322185218334198,
				1.350640058517456,
				0.8921834826469421
			],
			"min":[
				-0.3221852481365204,
				-0.6357488632202148,
				-0.7002164125442505
			],
			"type":"VEC3"
		},
		{
			"bufferView":6,
			"componentType":5126,
			"count":882,
			"type":"VEC3"
		},
		{
			"bufferView":7,
			"componentType":5126,
			"count":882,
			"type":"VEC2"
		},
		{
			"bufferView":8,
			"componentType":5126,
			"count":882,
			"type":"VEC2"
		},
		{
			"bufferView":9,
			"componentType":5123,
			"count":4608,
			"type":"SCALAR"
		},
		{
			"bufferView":10,
			"componentType":5126,
			"count":1925,
			"max":[
				0.2876706123352051,
				1.3939846754074097,
				0.9157382249832153
			],
			"min":[
				-0.2876706123352051,
				1.0990983247756958,
				0.7254098653793335
			],
			"type":"VEC3"
		},
		{
			"bufferView":11,
			"componentType":5126,
			"count":1925,
			"type":"VEC3"
		},
		{
			"bufferView":12,
			"componentType":5126,
			"count":1925,
			"type":"VEC2"
		},
		{
			"bufferView":13,
			"componentType":5126,
			"count":1925,
			"type":"VEC2"
		},
		{
			"bufferView":14,
			"componentType":5123,
			"count":10512,
			"type":"SCALAR"
		}
	],
	"bufferViews":[
		{
			"buffer":0,
			"byteLength":66000,
			"byteOffset":0,
			"target":34962
		},
		{
			"buffer":0,
			"byteLength":66000,
			"byteOffset":66000,
			"target":34962
		},
		{
			"buffer":0,
			"byteLength":44000,
			"byteOffset":132000,
			"target":34962
		},
		{
			"buffer":0,
			"byteLength":44000,
			"byteOffset":176000,
			"target":34962
		},
		{
			"buffer":0,
			"byteLength":64512,
			"byteOffset":220000,
			"target":34963
		},
		{
			"buffer":0,
			"byteLength":10584,
			"byteOffset":284512,
			"target":34962
		},
		{
			"buffer":0,
			"byteLength":10584,
			"byteOffset":295096,
			"target":34962
		},
		{
			"buffer":0,
			"byteLength":7056,
			"byteOffset":305680,
			"target":34962
		},
		{
			"buffer":0,
			"byteLength":7056,
			"byteOffset":312736,
			"target":34962
		},
		{
			"buffer":0,
			"byteLength":9216,
			"byteOffset":319792,
			"target":34963
		},
		{
			"buffer":0,
			"byteLength":23100,
			"byteOffset":329008,
			"target":34962
		},
		{
			"buffer":0,
			"byteLength":23100,
			"byteOffset":352108,
			"target":34962
		},
		{
			"buffer":0,
			"byteLength":15400,
			"byteOffset":375208,
			"target":34962
		},
		{
			"buffer":0,
			"byteLength":15400,
			"byteOffset":390608,
			"target":34962
		},
		{
			"buffer":0,
			"byteLength":21024,
			"byteOffset":406008,
			"target":34963
		}
	],
	"buffers":[
		{
			"byteLength":427032,
			"uri":"%E3%81%8F%E3%81%BE1.bin"
		}
	]
}
